#N canvas 42 295 729 590 10;
#X obj 51 69 ctlin 1 1;
#X obj 50 139 / 127;
#X obj 50 168 s filter_f;
#X obj 125 121 bendin 1;
#X obj 124 194 / 16383;
#X obj 120 223 s crossfade;
#X obj 238 65 ctlin 83 1;
#X obj 355 63 ctlin 80 1;
#X obj 466 61 ctlin 81 1;
#X obj 588 63 ctlin 82 1;
#X obj 236 252 ctlin 85 1;
#X obj 359 249 ctlin 84 1;
#X text 47 44 for small akai keyboard;
#X obj 220 417 r trigger;
#X floatatom 244 469 4 0 0 0 - - -, f 4;
#X obj 244 444 r level;
#X floatatom 296 469 4 0 0 0 - - -, f 4;
#X obj 296 444 r attack;
#X floatatom 357 468 4 0 0 0 - - -, f 4;
#X obj 357 443 r decay;
#X floatatom 407 466 4 0 0 0 - - -, f 4;
#X floatatom 472 468 4 0 0 0 - - -, f 4;
#X obj 407 441 r sustain;
#X obj 472 443 r release;
#X text 280 524 ADSR for amplitude:;
#X obj 223 521 outlet~;
#X obj 220 494 adsr 1 10 100 70 300;
#X obj 598 304 s arpeg_enable;
#X obj 84 407 notein;
#X obj 34 527 outlet;
#X obj 107 527 outlet;
#X obj 196 462 > 0;
#X obj 51 113 spigot;
#X obj 71 91 r akai_enable;
#X obj 124 166 spigot;
#X obj 144 144 r akai_enable;
#X obj 237 109 spigot;
#X obj 257 87 r akai_enable;
#X obj 356 109 spigot;
#X obj 376 87 r akai_enable;
#X obj 467 109 spigot;
#X obj 487 87 r akai_enable;
#X obj 588 110 spigot;
#X obj 608 88 r akai_enable;
#X obj 236 308 spigot;
#X obj 256 286 r akai_enable;
#X obj 357 310 spigot;
#X obj 377 288 r akai_enable;
#X obj 36 479 spigot;
#X obj 56 457 r akai_enable;
#X obj 77 500 spigot;
#X obj 97 478 r akai_enable;
#X obj 578 326 s akai_enable;
#X obj 559 239 inlet;
#X obj 559 261 tgl 15 0 empty empty empty 17 7 0 10 -262144 -1 -1 1
1;
#N canvas 0 22 450 300 incdec_bpm 0;
#X obj 112 190 +;
#X obj 114 154 t f b;
#X obj 163 23 inlet;
#X obj 112 218 clip 10 200;
#X obj 147 190 120;
#X obj 112 269 s bpm;
#X msg 123 118 -4;
#X msg 155 118 4;
#X obj 109 23 inlet;
#X obj 111 66 t b;
#X obj 166 68 t b;
#X connect 0 0 3 0;
#X connect 1 0 0 0;
#X connect 1 1 4 0;
#X connect 2 0 10 0;
#X connect 3 0 4 1;
#X connect 3 0 5 0;
#X connect 4 0 0 1;
#X connect 6 0 1 0;
#X connect 7 0 1 0;
#X connect 8 0 9 0;
#X connect 9 0 6 0;
#X connect 10 0 7 0;
#X restore 280 344 pd incdec_bpm;
#X obj 366 226 s preset-number;
#X obj 239 132 > 1;
#X obj 239 158 sel 1;
#X msg 236 182 1;
#X obj 357 130 > 1;
#X obj 357 156 sel 1;
#X obj 467 130 > 1;
#X obj 467 156 sel 1;
#X obj 590 133 > 1;
#X obj 590 159 sel 1;
#X msg 354 180 2;
#X msg 464 180 3;
#X msg 587 183 4;
#X obj 560 348 sel 1;
#X obj 561 370 t b b;
#X msg 561 393 0;
#X text 242 27 you'll want to modify the CC #'s in these to match the
output of any buttons on your own MIDI controller.;
#X obj 559 280 t f f f;
#X msg 590 393 0;
#X connect 0 0 32 0;
#X connect 1 0 2 0;
#X connect 3 0 34 0;
#X connect 4 0 5 0;
#X connect 6 0 36 0;
#X connect 7 0 38 0;
#X connect 8 0 40 0;
#X connect 9 0 42 0;
#X connect 10 0 44 0;
#X connect 11 0 46 0;
#X connect 13 0 26 0;
#X connect 14 0 26 1;
#X connect 15 0 14 0;
#X connect 16 0 26 2;
#X connect 17 0 16 0;
#X connect 18 0 26 3;
#X connect 19 0 18 0;
#X connect 20 0 26 4;
#X connect 21 0 26 5;
#X connect 22 0 20 0;
#X connect 23 0 21 0;
#X connect 26 0 25 0;
#X connect 28 0 48 0;
#X connect 28 1 31 0;
#X connect 28 1 50 0;
#X connect 31 0 26 0;
#X connect 32 0 1 0;
#X connect 33 0 32 1;
#X connect 34 0 4 0;
#X connect 35 0 34 1;
#X connect 36 0 57 0;
#X connect 37 0 36 1;
#X connect 38 0 60 0;
#X connect 39 0 38 1;
#X connect 40 0 62 0;
#X connect 41 0 40 1;
#X connect 42 0 64 0;
#X connect 43 0 42 1;
#X connect 44 0 55 0;
#X connect 45 0 44 1;
#X connect 46 0 55 1;
#X connect 47 0 46 1;
#X connect 48 0 29 0;
#X connect 49 0 48 1;
#X connect 50 0 30 0;
#X connect 51 0 50 1;
#X connect 53 0 54 0;
#X connect 54 0 73 0;
#X connect 57 0 58 0;
#X connect 58 0 59 0;
#X connect 59 0 56 0;
#X connect 60 0 61 0;
#X connect 61 0 66 0;
#X connect 62 0 63 0;
#X connect 63 0 67 0;
#X connect 64 0 65 0;
#X connect 65 0 68 0;
#X connect 66 0 56 0;
#X connect 67 0 56 0;
#X connect 68 0 56 0;
#X connect 69 0 70 0;
#X connect 70 0 71 0;
#X connect 70 1 74 0;
#X connect 71 0 29 0;
#X connect 73 0 69 0;
#X connect 73 1 52 0;
#X connect 73 2 27 0;
#X connect 74 0 30 0;
