#N canvas 17 76 566 546 10;
#X obj 75 4 ctlin;
#X text 166 9 For Livid DS1;
#X obj 36 352 list prepend send;
#X obj 36 377 list trim;
#X obj 35 323 oscformat DS1;
#X obj 34 477 netsend -u -b;
#X text 127 327 The cc data is made a list of col \, row \, 0-1 data.
;
#X obj 37 35 / 127;
#X msg 133 478 disconnect;
#X msg 76 424 connect 192.168.2.255 8339;
#X msg 82 446 connect boer01.local 8339;
#X text 246 426 broadcast to all on LAN (slow for clients);
#X obj 230 478 netsend -u -b;
#X msg 329 479 disconnect;
#X msg 278 447 connect boer02.local 8339;
#N canvas 18 532 555 333 faders 0;
#X text 81 175 for channel strips 1-8;
#X obj 98 116 spigot;
#X obj 51 116 spigot;
#X obj 96 54 t f f f;
#X obj 105 146 - 41;
#X obj 52 172 f;
#X obj 51 144 t b f;
#X obj 50 200 pack 0 5 0;
#X obj 116 83 expr if ( $f1>=41 &&$f1<=48 \, $f1 \, 0 );
#X obj 42 17 inlet;
#X obj 103 19 inlet;
#X obj 41 232 outlet;
#X obj 355 122 == 49;
#X obj 293 25 inlet;
#X obj 323 154 spigot;
#X obj 276 154 spigot;
#X obj 276 182 t b f;
#X text 92 224 all faders have ID 5;
#X obj 277 210 f;
#X obj 275 238 pack 0 6 0;
#X text 306 213 for master fader;
#X connect 1 0 4 0;
#X connect 2 0 6 0;
#X connect 3 0 1 0;
#X connect 3 1 8 0;
#X connect 3 2 12 0;
#X connect 4 0 5 1;
#X connect 5 0 7 0;
#X connect 6 0 5 0;
#X connect 6 1 7 2;
#X connect 7 0 11 0;
#X connect 8 0 1 1;
#X connect 8 0 2 1;
#X connect 9 0 2 0;
#X connect 9 0 15 0;
#X connect 10 0 3 0;
#X connect 12 0 14 1;
#X connect 12 0 15 1;
#X connect 13 0 18 1;
#X connect 15 0 16 0;
#X connect 16 0 18 0;
#X connect 16 1 19 2;
#X connect 18 0 19 0;
#X connect 19 0 11 0;
#X restore 101 120 pd faders;
#X obj 103 35 t f f f f;
#N canvas 599 153 459 389 encoders 0;
#X obj 125 156 spigot;
#X obj 54 191 spigot;
#X obj 126 89 t f f f;
#X obj 135 124 expr if ( $f1>=96 &&$f1<=99 \, $f1 \, 0 );
#X obj 79 263 f;
#X obj 61 49 inlet;
#X obj 130 61 inlet;
#X obj 55 331 outlet;
#X obj 55 297 pack 0 0 0;
#X obj 182 58 inlet;
#X obj 29 104 sel 1 127;
#X msg 25 129 1;
#X msg 56 129 -1;
#X text 85 12 encoders index is determined by selected CH use relative
mode;
#X obj 54 265 f;
#X obj 55 216 t b b f;
#X obj 125 181 - 89;
#X obj 127 204 + 0;
#X obj 230 64 inlet;
#X connect 0 0 16 0;
#X connect 1 0 15 0;
#X connect 2 0 0 0;
#X connect 2 1 3 0;
#X connect 3 0 0 1;
#X connect 3 0 1 1;
#X connect 4 0 8 1;
#X connect 5 0 10 0;
#X connect 6 0 2 0;
#X connect 8 0 7 0;
#X connect 9 0 14 1;
#X connect 10 0 11 0;
#X connect 10 1 12 0;
#X connect 11 0 1 0;
#X connect 12 0 1 0;
#X connect 14 0 8 0;
#X connect 15 0 14 0;
#X connect 15 1 4 0;
#X connect 15 2 8 2;
#X connect 16 0 17 0;
#X connect 17 0 4 1;
#X connect 18 0 17 1;
#X restore 169 118 pd encoders;
#N canvas 0 22 420 426 dials 0;
#X obj 89 117 spigot;
#X obj 42 117 spigot;
#X obj 90 143 - 1;
#X obj 41 203 f;
#X obj 37 272 i;
#X obj 40 175 t b f;
#X obj 36 298 pack 0 0 0;
#X obj 40 225 t f f;
#X obj 120 83 <= 40;
#X obj 38 250 / 5;
#X obj 65 249 % 5;
#X text 95 246 get column# and row# of dials;
#X obj 89 21 inlet;
#X obj 92 52 t f f;
#X obj 41 34 inlet;
#X obj 37 330 outlet;
#X connect 0 0 2 0;
#X connect 1 0 5 0;
#X connect 2 0 3 1;
#X connect 3 0 7 0;
#X connect 4 0 6 0;
#X connect 5 0 3 0;
#X connect 5 1 6 2;
#X connect 6 0 15 0;
#X connect 7 0 9 0;
#X connect 7 1 10 0;
#X connect 8 0 0 1;
#X connect 8 0 1 1;
#X connect 9 0 4 0;
#X connect 10 0 6 1;
#X connect 12 0 13 0;
#X connect 13 0 0 0;
#X connect 13 1 8 0;
#X connect 14 0 1 0;
#X restore 39 120 pd dials;
#N canvas 423 75 599 412 notes 0;
#X obj 128 77 notein;
#X floatatom 65 106 5 0 0 0 - - -, f 5;
#N canvas 0 22 450 300 btns_toprow-selectCH 0;
#N canvas 0 22 307 269 iter 0;
#X msg 57 50 bang;
#X obj 57 75 t b b;
#X obj 100 132 f;
#X msg 122 104 0;
#X obj 57 101 until;
#X obj 43 164 t b b;
#X obj 95 169 outlet;
#X obj 45 19 inlet;
#X obj 138 132 + 2;
#X obj 44 140 sel 14;
#X connect 0 0 1 0;
#X connect 1 0 4 0;
#X connect 1 1 3 0;
#X connect 2 0 6 0;
#X connect 2 0 8 0;
#X connect 2 0 9 0;
#X connect 3 0 2 1;
#X connect 4 0 2 0;
#X connect 5 1 4 1;
#X connect 7 0 0 0;
#X connect 8 0 2 1;
#X connect 9 0 5 0;
#X restore 161 167 pd iter;
#X obj 165 222 noteout;
#X obj 162 194 pack 0 0;
#X msg 113 193 \$1 127;
#X obj 107 89 expr if ( $f1>=0 &&$f1<=15&&$f1%2==0 \, $f1 \, -1 );
#X obj 107 117 sel -1;
#X obj 107 59 inlet;
#X obj 136 142 t f b f;
#X obj 236 168 / 2;
#X obj 233 192 i;
#X obj 235 219 outlet;
#X connect 0 0 2 0;
#X connect 2 0 1 0;
#X connect 3 0 1 0;
#X connect 4 0 5 0;
#X connect 5 1 7 0;
#X connect 6 0 4 0;
#X connect 7 0 3 0;
#X connect 7 1 0 0;
#X connect 7 2 8 0;
#X connect 8 0 9 0;
#X connect 9 0 10 0;
#X restore 65 140 pd btns_toprow-selectCH;
#X obj 63 178 outlet;
#N canvas 0 22 450 300 encoderbutton 0;
#X obj 56 29 inlet;
#X obj 106 34 inlet;
#X obj 108 102 > 0;
#X obj 108 134 * 4;
#X obj 96 164 f;
#X obj 38 109 t b f;
#X obj 98 198 spigot;
#X obj 37 64 expr if( $f1>=25 && $f1<=28 \, 1 \, 0 );
#X obj 92 230 outlet;
#X connect 0 0 7 0;
#X connect 1 0 2 0;
#X connect 2 0 3 0;
#X connect 3 0 4 1;
#X connect 4 0 6 0;
#X connect 5 0 4 0;
#X connect 5 1 6 1;
#X connect 6 0 8 0;
#X connect 7 0 5 0;
#X restore 215 155 pd encoderbutton;
#X obj 216 182 outlet;
#N canvas 0 22 450 300 btns_botrow 0;
#N canvas 0 22 307 269 iter 0;
#X msg 57 50 bang;
#X obj 57 75 t b b;
#X obj 100 132 f;
#X obj 57 101 until;
#X obj 28 186 t b b;
#X obj 95 169 outlet;
#X obj 45 19 inlet;
#X obj 138 132 + 2;
#X msg 122 104 1;
#X obj 27 162 sel 15;
#X connect 0 0 1 0;
#X connect 1 0 3 0;
#X connect 1 1 8 0;
#X connect 2 0 5 0;
#X connect 2 0 7 0;
#X connect 2 0 9 0;
#X connect 3 0 2 0;
#X connect 4 1 3 1;
#X connect 6 0 0 0;
#X connect 7 0 2 1;
#X connect 8 0 2 1;
#X connect 9 0 4 0;
#X restore 161 167 pd iter;
#X obj 165 222 noteout;
#X obj 162 194 pack 0 0;
#X obj 107 117 sel -1;
#X obj 107 59 inlet;
#X obj 136 142 t f b f;
#X obj 107 89 expr if ( $f1>=0 && $f1<=15 && $f1%2==1 \, $f1 \, -1
);
#X obj 235 219 outlet;
#X msg 116 196 \$1 16;
#X connect 0 0 2 0;
#X connect 2 0 1 0;
#X connect 3 1 5 0;
#X connect 4 0 6 0;
#X connect 5 0 8 0;
#X connect 5 1 0 0;
#X connect 6 0 3 0;
#X connect 8 0 1 0;
#X restore 123 202 pd btns_botrow;
#N canvas 540 404 659 358 btns_grid 0;
#X obj 107 59 inlet;
#X obj 106 248 outlet;
#X obj 170 113 inlet;
#X obj 105 185 spigot;
#X obj 153 186 spigot;
#X obj 153 163 f;
#X obj 107 113 t f b f;
#X obj 106 215 pack 0 0;
#X obj 107 89 expr if ( $f1>=16 && $f1<=24 \, $f1 \, 0 );
#X connect 0 0 8 0;
#X connect 2 0 5 1;
#X connect 3 0 7 0;
#X connect 4 0 7 1;
#X connect 5 0 4 0;
#X connect 6 0 3 0;
#X connect 6 1 5 0;
#X connect 6 2 4 1;
#X connect 6 2 3 1;
#X connect 7 0 1 0;
#X connect 8 0 6 0;
#X restore 368 149 pd btns_grid;
#X obj 365 178 outlet;
#X connect 0 0 1 0;
#X connect 0 0 2 0;
#X connect 0 0 4 0;
#X connect 0 0 6 0;
#X connect 0 0 7 0;
#X connect 0 1 4 1;
#X connect 0 1 7 1;
#X connect 2 0 3 0;
#X connect 4 0 5 0;
#X connect 7 0 8 0;
#X restore 255 29 pd notes;
#N canvas 59 325 556 439 BPM 0;
#X obj 165 108 tabread bpm_mults;
#X obj 162 164 f;
#N canvas 513 585 450 300 incdecBPM 0;
#X obj 114 185 +;
#X obj 116 149 t f b;
#X obj 149 185 f;
#X obj 109 23 inlet;
#X obj 98 262 outlet;
#X msg 165 113 -1;
#X msg 89 113 1;
#X obj 112 86 sel 16 17 18;
#X obj 114 213 clip 0 18;
#X text 209 91 sets BPM multiples using left;
#X text 209 110 column of DS1 grid;
#X msg 125 111 10;
#X obj 199 23 loadbang;
#X obj 201 49 del 500;
#X obj 211 150 inlet;
#X obj 212 174 t b;
#X msg 212 197 10;
#X msg 259 41 16;
#X msg 286 40 17;
#X msg 322 39 18;
#X connect 0 0 8 0;
#X connect 1 0 0 0;
#X connect 1 1 2 0;
#X connect 2 0 0 1;
#X connect 3 0 7 0;
#X connect 5 0 1 0;
#X connect 6 0 1 0;
#X connect 7 0 6 0;
#X connect 7 1 11 0;
#X connect 7 2 5 0;
#X connect 8 0 2 1;
#X connect 8 0 4 0;
#X connect 11 0 4 0;
#X connect 11 0 2 1;
#X connect 12 0 13 0;
#X connect 13 0 11 0;
#X connect 14 0 15 0;
#X connect 15 0 16 0;
#X connect 16 0 2 1;
#X connect 17 0 7 0;
#X connect 18 0 7 0;
#X connect 19 0 7 0;
#X restore 157 63 pd incdecBPM;
#X floatatom 160 86 5 0 0 0 - - -, f 5;
#X obj 208 163 * 120;
#X obj 158 10 inlet;
#X obj 106 34 inlet;
#X obj 164 261 outlet;
#X obj 70 355 array set bpm_mults;
#X obj 69 382 array define bpm_mults;
#X msg 69 316 0.015625 0.03125 0.0625 0.083333 0.125 0.166667 0.2 0.25
0.333333 0.5 1 2 3 4 5 6 8 12 16 32;
#X obj 72 285 loadbang;
#X obj 164 232 pack 0 s 0;
#X obj 245 234 pack 0 s 1;
#X obj 267 170 loadbang;
#X msg 232 198 symbol bpm;
#X msg 304 198 symbol sync;
#X msg 410 212 symbol sync 0;
#X text 9 33 selected track;
#X obj 165 131 t b f b;
#X obj 103 62 change;
#X obj 104 90 t b;
#X obj 156 41 stripnote;
#X text 194 11 net \, vel pair;
#X obj 408 191 sel 20;
#X connect 0 0 19 0;
#X connect 1 0 12 0;
#X connect 1 0 13 0;
#X connect 2 0 3 0;
#X connect 3 0 0 0;
#X connect 4 0 12 2;
#X connect 5 0 22 0;
#X connect 5 0 24 0;
#X connect 6 0 20 0;
#X connect 6 0 1 1;
#X connect 10 0 8 0;
#X connect 11 0 10 0;
#X connect 12 0 7 0;
#X connect 13 0 7 0;
#X connect 14 0 15 0;
#X connect 14 0 16 0;
#X connect 15 0 12 1;
#X connect 16 0 13 1;
#X connect 17 0 7 0;
#X connect 19 0 1 0;
#X connect 19 1 4 0;
#X connect 20 0 21 0;
#X connect 21 0 2 1;
#X connect 22 0 2 0;
#X connect 24 0 17 0;
#X restore 270 117 pd BPM;
#X obj 277 260 print;
#X obj 279 229 spigot;
#X obj 309 203 tgl 15 0 empty empty empty 17 7 0 10 -262144 -1 -1 0
1;
#N canvas 0 22 647 451 init 0;
#X msg 135 188 \; pd midi-dialog 1 0 0 0 0 0 0 0 0 1 0 0 0 0 0 0 0
0 0 0;
#X obj 115 115 loadbang;
#X text 68 51 enables the first midi device for input and output \,
;
#X text 68 75 turns off all other devices;
#X obj 39 173 outlet;
#X obj 64 145 del 100;
#X obj 119 145 del 3000;
#X obj 101 343 noteout;
#N canvas 0 22 345 321 init-colors 0;
#X msg 57 50 bang;
#X obj 57 75 t b b;
#X obj 100 132 f;
#X obj 57 101 until;
#X obj 28 186 t b b;
#X obj 98 279 outlet;
#X obj 45 19 inlet;
#X obj 138 132 + 1;
#X msg 122 104 0;
#X obj 27 162 sel 9;
#X obj 99 204 + 16;
#X obj 194 127 / 3;
#X obj 191 151 i;
#X obj 188 179 sel 0 1 2;
#X msg 184 208 2;
#X msg 214 205 4;
#X msg 243 206 8;
#X obj 99 170 t f f;
#X obj 115 248 pack 0 0;
#X obj 189 239 i;
#X msg 28 212 20 32;
#X connect 0 0 1 0;
#X connect 1 0 3 0;
#X connect 1 1 8 0;
#X connect 2 0 7 0;
#X connect 2 0 9 0;
#X connect 2 0 17 0;
#X connect 3 0 2 0;
#X connect 4 0 20 0;
#X connect 4 1 3 1;
#X connect 6 0 0 0;
#X connect 7 0 2 1;
#X connect 8 0 2 1;
#X connect 9 0 4 0;
#X connect 10 0 18 0;
#X connect 11 0 12 0;
#X connect 12 0 13 0;
#X connect 13 0 14 0;
#X connect 13 1 15 0;
#X connect 13 2 16 0;
#X connect 14 0 19 0;
#X connect 15 0 19 0;
#X connect 16 0 19 0;
#X connect 17 0 10 0;
#X connect 17 1 11 0;
#X connect 18 0 5 0;
#X connect 19 0 18 1;
#X connect 20 0 18 0;
#X restore 104 316 pd init-colors;
#X obj 121 289 del 2000;
#X obj 215 348 ctlout 122 16;
#X msg 214 321 64;
#X text 244 321 turnoff local control;
#X connect 1 0 6 0;
#X connect 5 0 4 0;
#X connect 6 0 0 0;
#X connect 6 0 5 0;
#X connect 6 0 9 0;
#X connect 8 0 7 0;
#X connect 9 0 8 0;
#X connect 9 0 11 0;
#X connect 11 0 10 0;
#X restore 125 380 pd init;
#X msg 210 389 connect localhost 8339;
#X text 319 48 2nd outlet encoder button list;
#X text 319 29 1st outlet: selected track/CH #;
#X text 320 69 3rd outlet grid button list;
#N canvas 667 173 307 309 transpose 1;
#X obj 109 28 inlet;
#X obj 110 68 stripnote;
#X obj 31 24 inlet;
#X obj 107 98 sel 19 21;
#X msg 103 127 1;
#X msg 132 126 -1;
#X obj 76 217 pack 0 s 0;
#X obj 174 128 loadbang;
#X msg 170 153 symbol transpose;
#X obj 78 253 outlet;
#X obj 78 187 f;
#X obj 106 157 t b f;
#X connect 0 0 1 0;
#X connect 1 0 3 0;
#X connect 2 0 10 1;
#X connect 3 0 4 0;
#X connect 3 1 5 0;
#X connect 4 0 11 0;
#X connect 5 0 11 0;
#X connect 6 0 9 0;
#X connect 7 0 8 0;
#X connect 8 0 6 1;
#X connect 10 0 6 0;
#X connect 11 0 10 0;
#X connect 11 1 6 2;
#X restore 330 114 pd transpose;
#X connect 0 0 7 0;
#X connect 0 0 17 0;
#X connect 0 1 16 0;
#X connect 2 0 3 0;
#X connect 3 0 5 0;
#X connect 3 0 12 0;
#X connect 4 0 2 0;
#X connect 4 0 22 0;
#X connect 7 0 15 0;
#X connect 7 0 18 0;
#X connect 8 0 5 0;
#X connect 9 0 5 0;
#X connect 10 0 5 0;
#X connect 13 0 12 0;
#X connect 14 0 12 0;
#X connect 15 0 4 0;
#X connect 16 1 18 1;
#X connect 16 2 15 1;
#X connect 16 3 17 1;
#X connect 17 0 4 0;
#X connect 18 0 4 0;
#X connect 19 0 17 2;
#X connect 19 0 15 2;
#X connect 19 0 20 0;
#X connect 19 0 29 0;
#X connect 19 1 17 3;
#X connect 19 2 20 1;
#X connect 19 2 29 1;
#X connect 20 0 4 0;
#X connect 22 0 21 0;
#X connect 23 0 22 1;
#X connect 24 0 9 0;
#X connect 25 0 5 0;
#X connect 29 0 4 0;
