#N canvas 742 417 450 300 10;
#X msg 123 62 -1;
#X msg 155 62 1;
#X obj 112 134 +;
#X obj 114 98 t f b;
#X obj 112 162 clip 0 127;
#X obj 147 134 f;
#X obj 109 23 inlet;
#X obj 112 213 outlet;
#X obj 120 186 / 127;
#X connect 0 0 3 0;
#X connect 1 0 3 0;
#X connect 2 0 4 0;
#X connect 3 0 2 0;
#X connect 3 1 5 0;
#X connect 4 0 5 1;
#X connect 4 0 8 0;
#X connect 5 0 2 1;
#X connect 6 0 3 0;
#X connect 8 0 7 0;
