#N canvas 15 23 450 300 10;
#X obj 148 200 list split 1;
#X obj 148 117 until;
#X obj 148 155 list append;
#X obj 278 200 bang;
#X obj 167 46 inlet;
#X obj 147 235 outlet;
#X obj 174 84 t b l l;
#X obj 235 115 list length;
#X obj 244 143 outlet;
#X connect 0 0 5 0;
#X connect 0 1 2 1;
#X connect 0 2 3 0;
#X connect 1 0 2 0;
#X connect 2 0 0 0;
#X connect 3 0 1 1;
#X connect 4 0 6 0;
#X connect 6 0 1 0;
#X connect 6 1 2 1;
#X connect 6 2 7 0;
#X connect 7 0 8 0;
