#N canvas 15 23 450 300 10;
#X msg 165 42 bang;
#X obj 200 102 t b b;
#X obj 243 159 f;
#X obj 281 159 + 1;
#X msg 265 131 0;
#X obj 200 128 until;
#X obj 244 183 t f f;
#X obj 238 230 sel 0;
#X obj 201 40 inlet;
#X obj 281 233 outlet;
#X obj 244 206 < \$1;
#X obj 195 253 outlet;
#X connect 0 0 1 0;
#X connect 1 0 5 0;
#X connect 1 1 4 0;
#X connect 2 0 3 0;
#X connect 2 0 6 0;
#X connect 3 0 2 1;
#X connect 4 0 2 1;
#X connect 5 0 2 0;
#X connect 6 0 10 0;
#X connect 6 1 3 0;
#X connect 6 1 9 0;
#X connect 7 0 5 1;
#X connect 7 0 11 0;
#X connect 8 0 1 0;
#X connect 10 0 7 0;
